<svg id="Layer_1" data-name="Layer 1" xmlns="http://www.w3.org/2000/svg" viewBox="0 0 300.79 340.91"><defs><style>.cls-1{fill:#e52823;}.cls-2{fill:#005097;}.cls-3{fill:#fff;}.cls-4,.cls-5{fill:none;stroke:#fff;stroke-miterlimit:10;}.cls-4{stroke-width:7px;}.cls-5{stroke-width:3px;}.cls-6{fill:#3b3b3b;}</style></defs><title>Logo_Fanacea_1.2</title><path class="cls-1" d="M302.91,133.28l-40-8.65-45.06,64.9-23.29,50.06s1.36,18.65,2.59,37.83,14.79,56.36,23.13,56.72,54.92-27.46,54.92-27.46l19.12-22.94,30.88-94.28Z" transform="translate(-36.06 -7.81)"/><path class="cls-1" d="M70,133.28l40-8.65,45.06,64.9,23.29,50.06s-1.36,18.65-2.59,37.83S161,333.78,152.66,334.13s-54.92-27.46-54.92-27.46L78.61,283.73,47.73,189.45Z" transform="translate(-36.06 -7.81)"/><path class="cls-2" d="M163.2,79.27c-16.84,4.28-37.35,4.55-37.35,4.55l-46.07,45,4.15,3.28s29.28,17.81,43.16,32.27C138.76,176.57,147,201.12,148.94,209l-4.83,4.81-2.47,3.54s-10.29,20.28-38.24,19.21-45-24.22-48.15-33.31l-3.19-9.1L64.61,271l39.77-5,45.29-26.22L160,217.48l22.54-56.56L184,77.5S180,75,163.2,79.27Z" transform="translate(-36.06 -7.81)"/><path class="cls-2" d="M209.71,79.27c16.84,4.28,37.35,4.55,37.35,4.55l46.07,45L289,132.14s-29.29,17.81-43.16,32.27c-11.68,12.17-18.75,38-20.69,45.88l-.7,6.39,1.73,2.94s15.4,18,43.35,16.92,45-24.22,48.15-33.31l3.18-9.1L308.29,271l-39.77-5L223.24,239.8,213,217.48l-22.54-56.56L188.9,77.5S192.88,75,209.71,79.27Z" transform="translate(-36.06 -7.81)"/><polygon class="cls-3" points="141.72 251.26 159.84 251.26 170.88 317.93 128.55 317.93 141.72 251.26"/><path class="cls-4" d="M109.94,89.73s68.53,30.4,68.53,132.9-22.19,108.68-22.19,108.68" transform="translate(-36.06 -7.81)"/><path class="cls-4" d="M263,89.73s-68.52,30.4-68.52,132.9,22.19,108.68,22.19,108.68" transform="translate(-36.06 -7.81)"/><line class="cls-5" x1="150.39" y1="245.2" x2="150.39" y2="325.89"/><path class="cls-3" d="M123.12,304.86C140.29,282.31,155,263.58,155,229.38a104.8,104.8,0,0,0-73.6-100l-5.33,23.79s75.16,8,72.58,76.26c-1.2,31.69-20.19,59.83-28.11,72.5C120,302.76,123.12,304.86,123.12,304.86Z" transform="translate(-36.06 -7.81)"/><path class="cls-3" d="M249.79,304.86c-17.17-22.55-31.88-41.28-31.88-75.49a104.8,104.8,0,0,1,73.6-100l5.33,23.79s-75.16,8-72.58,76.26c1.2,31.69,20.19,59.83,28.11,72.5C252.93,302.76,249.79,304.86,249.79,304.86Z" transform="translate(-36.06 -7.81)"/><path class="cls-6" d="M186.45,81.18a125.27,125.27,0,1,1-88.58,36.69,124.45,124.45,0,0,1,88.58-36.69m0-17A142.27,142.27,0,1,0,328.72,206.45,142.27,142.27,0,0,0,186.45,64.18Z" transform="translate(-36.06 -7.81)"/><path class="cls-3" d="M186.45,89.18a117.27,117.27,0,1,1-82.93,34.35,116.5,116.5,0,0,1,82.93-34.35m0-8A125.27,125.27,0,1,0,311.72,206.45,125.27,125.27,0,0,0,186.45,81.18Z" transform="translate(-36.06 -7.81)"/><path class="cls-6" d="M307,323c-.23-.35-23-35.12-58.14-52a146.66,146.66,0,0,0-61.54-14.52h-.69c-.29,0-.79.06-1.49.06h-1.68c-.82,0-1.39,0-1.69-.06h0c-8.28,0-30.47,1.41-57.69,14.52-35.12,16.9-57.91,51.67-58.14,52l-1.63,2.52-2.74-1.23c-.72-.33-17.68-8.13-21.07-24-6.22-29.19,21.84-40.09,22.13-40.19l.84-.32.89.13a22.38,22.38,0,0,0,2.55.11c3.39,0,10.65-.47,21.24-3.65,21.9-6.57,40.9-19.92,56.48-39.68,18.94-24,17.42-63.76,17.4-64.16l-.2-4.62,4,1c1-.2,3.69-2.59,4.27-11.59,1-15.3-3.9-54.5-4-54.89l-.1-.78,20.41-62.5,20.41,62.5-.1.78c0,.39-4.94,39.6-4,54.89.58,9,3.24,11.39,4.28,11.59l4.36-1-.54,4.68c0,.4-1.54,40.15,17.4,64.16,15.58,19.76,34.59,33.11,56.48,39.68C295.38,259.53,302.64,260,306,260a22.06,22.06,0,0,0,2.57-.12l.87-.12.84.31c.28.11,28.35,11,22.13,40.19-3.39,15.89-20.35,23.7-21.07,24l-2.74,1.23Z" transform="translate(-36.06 -7.81)"/><path class="cls-3" d="M186.45,30.36l16.84,51.57s-5,39.75-4,55.55c.91,14.13,6.66,14.88,7.87,14.88h.22s-1.85,41.12,18.15,66.48,41.8,35.94,58.23,40.87c10.82,3.25,18.36,3.8,22.25,3.8a23.89,23.89,0,0,0,3.05-.15S334.69,273,329,299.54c-3.06,14.34-19.08,21.56-19.08,21.56s-23.09-35.72-59.56-53.27A149.31,149.31,0,0,0,187.32,253h-.87a11.58,11.58,0,0,1-1.31.06l-.79,0h-.89c-1,0-1.53-.06-1.53-.06h-.19c-9.34,0-31.7,1.63-59.21,14.86C86.06,285.38,63,321.1,63,321.1s-16-7.22-19.08-21.56C38.22,273,63.82,263.35,63.82,263.35a23.88,23.88,0,0,0,3.05.15c3.89,0,11.43-.55,22.25-3.8,16.43-4.93,38.23-15.51,58.22-40.87s18.15-66.48,18.15-66.48h.22c1.21,0,7-.75,7.87-14.88,1-15.8-4-55.55-4-55.55l16.84-51.57m0-22.55L179.8,28.19,163,79.76l-.49,1.49.2,1.56c0,.39,4.89,39.27,3.93,54.23-.32,5-1.29,7.26-1.82,8.16l-6.65-.89.38,8.36c0,.38,1.45,38.87-16.65,61.84-15.13,19.18-33.54,32.14-54.74,38.5-10.16,3-17,3.5-20.23,3.5a20.81,20.81,0,0,1-2.09-.08l-1.82-.3-1.61.68a44.37,44.37,0,0,0-14.6,9.74C40.35,273,33.46,284.2,37,301c3.75,17.6,22.27,26.13,23.05,26.48L65.58,330l3.27-5.05c.22-.34,22.54-34.32,56.72-50.76C152,261.4,173.51,260,181.63,260c.4,0,1,.06,1.82.06h1.68c.71,0,1.27,0,1.66-.06h.53a143,143,0,0,1,60,14.17c34.3,16.5,56.5,50.42,56.71,50.76l3.27,5.05,5.49-2.47c.79-.35,19.3-8.88,23.05-26.48,3.58-16.8-3.31-28-9.72-34.46a44.37,44.37,0,0,0-14.6-9.74l-1.76-.66-1.67.28a20.82,20.82,0,0,1-2.09.08c-3.19,0-10.07-.46-20.23-3.51-21.2-6.36-39.61-19.31-54.74-38.5-18.1-23-16.67-61.46-16.65-61.84l.36-8.34-6.64.88c-.53-.89-1.5-3.17-1.82-8.16-1-15,3.88-53.84,3.93-54.23l.2-1.56-.49-1.49L193.11,28.19,186.45,7.81Z" transform="translate(-36.06 -7.81)"/></svg>